<svg width="60" height="40" viewBox="0 0 60 40" fill="none" xmlns="http://www.w3.org/2000/svg">
<path d="M0 35.7143C0 36.851 0.526796 37.941 1.46448 38.7447C2.40216 39.5485 3.67392 40 5 40H55C56.3261 40 57.5978 39.5485 58.5355 38.7447C59.4732 37.941 60 36.851 60 35.7143V19.9996H0V35.7143ZM20 29.6432C20.0011 29.3593 20.1331 29.0874 20.3673 28.8866C20.6015 28.6859 20.9188 28.5727 21.25 28.5718H35.417C35.7482 28.5727 36.0656 28.6859 36.2997 28.8866C36.5339 29.0874 36.6659 29.3593 36.667 29.6432V33.2141C36.6659 33.4979 36.5339 33.7699 36.2997 33.9706C36.0656 34.1714 35.7482 34.2846 35.417 34.2855H21.25C20.9188 34.2846 20.6015 34.1714 20.3673 33.9706C20.1331 33.7699 20.0011 33.4979 20 33.2141V29.6432ZM6.66699 29.6432C6.66805 29.3593 6.80011 29.0874 7.0343 28.8866C7.26849 28.6859 7.5858 28.5727 7.91699 28.5718H15.417C15.7482 28.5727 16.0656 28.6859 16.2997 28.8866C16.5339 29.0874 16.6659 29.3593 16.667 29.6432V33.2141C16.6659 33.4979 16.5339 33.7699 16.2997 33.9706C16.0656 34.1714 15.7482 34.2846 15.417 34.2855H7.91699C7.5858 34.2846 7.26849 34.1714 7.0343 33.9706C6.80011 33.7699 6.66805 33.4979 6.66699 33.2141V29.6432ZM60 4.28568V8.57137H0V4.28568C0 3.14905 0.526796 2.05898 1.46448 1.25526C2.40216 0.451536 3.67392 0 5 0H55C56.3261 0 57.5978 0.451536 58.5355 1.25526C59.4732 2.05898 60 3.14905 60 4.28568Z" fill="white"/>
</svg>
