<svg xmlns="http://www.w3.org/2000/svg" width="54" height="54" viewBox="0 0 54 54">
  <g id="Grupo_241" data-name="Grupo 241" transform="translate(-785 -261)">
    <g id="Elipse_36" data-name="Elipse 36" transform="translate(785 261)" fill="none" stroke="#000" stroke-width="3">
      <circle cx="27" cy="27" r="27" stroke="none"/>
      <circle cx="27" cy="27" r="25.5" fill="none"/>
    </g>
    <path id="Caminho_1" data-name="Caminho 1" d="M22.413,10.975l-5.1-8.84A7.056,7.056,0,0,1,16.5,0l-.213.372a7.068,7.068,0,0,0,0,7.068l4.081,7.068a7.068,7.068,0,0,1,0,7.068l-.213.372a7.051,7.051,0,0,0-.806-2.137l-3.736-6.47L13.231,9.2a7.068,7.068,0,0,1-.807-2.135l-.212.372a7.068,7.068,0,0,0-.012,7.047h0l4.092,7.09a7.068,7.068,0,0,1,0,7.068l-.215.372a7.068,7.068,0,0,0-.806-2.135l-5.1-8.841A7.068,7.068,0,0,1,9.229,14.2C3.77,15.624,0,18.656,0,22.164,0,27.043,7.295,31,16.292,31s16.291-3.957,16.291-8.836c0-3.509-3.77-6.54-9.231-7.966" transform="translate(796 271)"/>
  </g>
</svg>
