<svg xmlns="http://www.w3.org/2000/svg" xmlns:xlink="http://www.w3.org/1999/xlink" width="300" height="52.561" viewBox="0 0 300 52.561">
  <defs>
    <clipPath id="clip-path">
      <rect id="Retângulo_2" data-name="Retângulo 2" width="300" height="52.561" fill="#f8071b"/>
    </clipPath>
  </defs>
  <g id="Grupo_1" data-name="Grupo 1" clip-path="url(#clip-path)">
    <path id="Caminho_1" data-name="Caminho 1" d="M39.593,24.075A11.984,11.984,0,0,0,38,18.609L29.352,3.62A11.963,11.963,0,0,1,27.983,0l-.362.631a11.984,11.984,0,0,0,0,11.984L34.541,24.6a11.984,11.984,0,0,1,0,11.984l-.362.631a11.955,11.955,0,0,0-1.367-3.622L26.478,22.62,22.433,15.6a11.984,11.984,0,0,1-1.369-3.62l-.36.631a11.984,11.984,0,0,0-.021,11.948h0l6.938,12.022a11.984,11.984,0,0,1,0,11.984l-.364.631a11.984,11.984,0,0,0-1.367-3.62L17.24,30.588a11.984,11.984,0,0,1-1.592-6.518C6.391,26.491,0,31.631,0,37.579c0,8.273,12.369,14.982,27.624,14.982s27.622-6.709,27.622-14.982c0-5.95-6.391-11.088-15.65-13.506m26.07,25.58a17.45,17.45,0,0,1,.984-5.239,24.26,24.26,0,0,0,9.5,2.02c4.825,0,7.522-1.556,7.522-4.625,0-3.009-1.972-4.415-6.848-6.539l-2.647-1.142c-4.88-2.128-8.2-4.878-8.2-10.378,0-5.914,4.1-9.7,12.505-9.7a28.471,28.471,0,0,1,9.495,1.505,19.962,19.962,0,0,1-1.037,5.189,26.291,26.291,0,0,0-8.511-1.505c-4.514,0-6.587,1.764-6.587,4.514,0,2.7,2.023,4.253,5.653,5.811l2.8,1.192c6.591,2.8,9.339,5.761,9.339,10.794,0,5.965-4.512,10.064-13.334,10.064a24.992,24.992,0,0,1-10.638-1.97M117.5,24.834V50.778H112.27l-.311-3.112a7.962,7.962,0,0,1-7.314,3.734c-6.85,0-11.416-4.981-11.416-13.7,0-9.133,4.878-14.32,14.475-14.32a29.081,29.081,0,0,1,9.808,1.451M111.8,44.864V28.593a23.613,23.613,0,0,0-4.1-.311c-5.914,0-8.664,3.633-8.664,9.444,0,5.292,2.126,9.028,7.211,9.028a8.935,8.935,0,0,0,5.553-1.869m34.919-11.517V50.8h-5.708V34.347c0-4.1-1.348-6.07-7.056-6.07a28.446,28.446,0,0,0-4.514.42V50.8h-5.708V24.853A48.637,48.637,0,0,1,134.114,23.4c9.545,0,12.615,3.683,12.615,9.961m15.827,13.178a12.909,12.909,0,0,0,4.461-.778c-.153,1.556-.364,3.322-.673,4.836a12.97,12.97,0,0,1-4.836.828c-5.553,0-9.08-2.542-9.08-8.87V15.306a19.731,19.731,0,0,1,5.71-.841v9.818h9.028a43.885,43.885,0,0,1-.519,4.876h-8.509V41.872c0,3.364,1.659,4.669,4.415,4.669m30.609-21.689V50.8h-5.241l-.311-3.112a7.962,7.962,0,0,1-7.314,3.734c-6.85,0-11.418-4.981-11.418-13.7,0-9.133,4.88-14.32,14.477-14.32a29.081,29.081,0,0,1,9.808,1.451m-5.708,20.028V28.593a23.612,23.612,0,0,0-4.1-.311c-5.914,0-8.664,3.633-8.664,9.444,0,5.292,2.126,9.028,7.211,9.028a8.935,8.935,0,0,0,5.552-1.869m34.919-11.517V50.8h-5.708V34.347c0-4.1-1.348-6.07-7.056-6.07a28.446,28.446,0,0,0-4.514.42V50.8h-5.708V24.853A48.622,48.622,0,0,1,209.766,23.4c9.547,0,12.615,3.683,12.615,9.961m28.955-18.886V50.8h-5.241l-.311-3.322a7.861,7.861,0,0,1-7.417,3.942c-6.85,0-11.414-4.981-11.414-13.7,0-9.133,4.876-14.32,14.473-14.32a22.468,22.468,0,0,1,4.255.42V15.255a17.31,17.31,0,0,1,5.658-.78m-5.666,30.307V28.8a22.753,22.753,0,0,0-4.564-.521c-5.656,0-8.353,3.53-8.353,9.444,0,5.292,2.128,9.028,7.209,9.028a9.148,9.148,0,0,0,5.708-1.974m34.35-5.084H261.809c.725,4.625,3.423,6.85,8.509,6.85a22.244,22.244,0,0,0,9.133-1.972c-.21,1.505-.519,3.477-.881,5.187a19.611,19.611,0,0,1-8.41,1.659c-9.545,0-14.164-5.292-14.164-14.162,0-7.733,3.574-13.853,12.661-13.853,8.145,0,11.675,5.344,11.675,11.881a30.537,30.537,0,0,1-.311,4.415M261.7,34.926h12.873c0-4.255-2.283-6.745-6.227-6.745-4.047,0-6.175,2.336-6.642,6.745M300,23.614a21.235,21.235,0,0,1-.519,4.878,36.767,36.767,0,0,0-4.306-.21,28.759,28.759,0,0,0-4.2.311V50.8h-5.706V24.853a34.714,34.714,0,0,1,9.755-1.451,46.463,46.463,0,0,1,4.981.21" transform="translate(0 0)" fill="#f8071b"/>
  </g>
</svg>
